<?xml version="1.0" encoding="UTF-8"?>
<svg width="29px" height="32px" viewBox="0 0 29 32" version="1.1" xmlns="http://www.w3.org/2000/svg" xmlns:xlink="http://www.w3.org/1999/xlink">
    <g stroke="none" stroke-width="1" fill="none" fill-rule="evenodd">
        <g transform="translate(0.413015, -0.000000)" fill="#212529">
            <g transform="translate(14.057170, 23.987477) rotate(7.000000) translate(-14.057170, -23.987477) translate(0.666554, 17.699054)" fill-rule="nonzero">
                <path d="M6.56500457,2.12518758 C6.5521821,2.12906572 6.54078426,2.13165092 6.52796252,2.13423646 L4.78123063,2.55954411 L6.59062326,8.68434488 L7.02374099,8.63780659 L7.02231598,8.63651399 C7.62496055,8.5667082 8.23617629,8.63263618 8.80322314,8.82912355 L11.5187528,9.74175461 L11.5201774,9.74175461 C12.8907625,10.2239156 14.4394456,10.0222684 15.6047967,9.20916036 L26.2815591,2.01811211 C26.8272327,1.64969085 26.944056,0.951632999 26.5422832,0.452660954 C26.3741642,0.245831449 26.1305387,0.0971789465 25.8555682,0.0351300949 C25.84702,0.0338371623 25.8370468,0.031251959 25.8284983,0.0286667556 C25.7971544,0.0222030854 25.765812,0.0170323477 25.734467,0.0118616101 L25.7358917,0.0131542118 C25.4124777,-0.0320901562 25.0819295,0.0403008326 24.8183751,0.21610525 C24.8098269,0.221275988 24.8012783,0.226446726 24.7941548,0.231617463 L17.9583716,4.37979002 C17.7218656,4.55430118 17.4469097,4.68098673 17.1519885,4.75208313 L11.9148201,6.02539175 C11.7310286,6.0693422 11.5415546,5.97109984 11.4931184,5.80434231 C11.4432524,5.63758478 11.5529561,5.4656714 11.7367476,5.42040056 L16.9724571,4.14709194 L16.9738821,4.14838454 C17.3528738,4.05531126 17.6777029,3.83167727 17.8785966,3.52531479 C17.8814459,3.52014405 17.8842952,3.51497332 17.8885695,3.50980258 L17.8871448,3.50850965 C18.3017342,2.86217571 18.0638131,2.03227646 17.3528873,1.65091595 L17.3357905,1.6418674 C16.9895808,1.46088993 16.579266,1.41047648 16.1931621,1.50484368 L12.805142,2.32828986 C12.0870601,2.51055794 11.3262683,2.49116892 10.6196026,2.27528855 L9.4014749,1.91464408 L9.4014749,1.91593668 C8.821626,1.73496252 8.19614929,1.72074258 7.60630677,1.87198624 L6.56624064,2.12535073 L6.56500457,2.12518758 Z"></path>
                <path d="M2.38517577,2.62076406 L1.13686838e-13,3.23359137 L2.61069299,12.5768476 L4.97706949,11.9682085 L4.97562401,11.9695949 C4.98718853,11.9654354 5.00019851,11.9626627 5.01176302,11.9598896 C5.34568689,11.8697686 5.63047361,11.6604149 5.80825252,11.3734338 L5.81692572,11.3567967 C5.99473054,11.0642538 6.04532574,10.7162491 5.95859006,10.3876521 C5.95425327,10.3751737 5.95136233,10.3640821 5.94847102,10.3516051 L4.04611821,3.54008596 C3.84952152,2.84825056 3.10793106,2.43645729 2.38515838,2.62088048 L2.38517577,2.62076406 Z"></path>
            </g>
            <g transform="translate(6.586985, 0.000000)">
                <path d="M7.8925,1 L2.5,1 C1.67157,1 1,1.67157 1,2.5 L1,15.50453 C1,16.33293 1.67157,17.00453 2.5,17.00453 L11.5059,17.00453 C12.3343,17.00453 13.0059,16.33293 13.0059,15.50453 L13.0059,5.98266 L13.0059,5.51595 C13.0059,5.23981 12.782,5.01595 12.5059,5.01595 L10.4964,5.01595 C9.668,5.01595 8.9964,4.34438 8.9964,3.51595 L8.9964,1.5 C8.9964,1.22485 8.7741,1.0016 8.4994,1 C8.4984,1 8.4974,1 8.4964,1 L7.8985,1 C7.8965,1 7.8945,1 7.8925,1 Z M9.9964,1.6821 L9.9964,3.51595 C9.9964,3.7921 10.2203,4.01595 10.4964,4.01595 L12.3179,4.01595 L9.9964,1.6821 Z M14.0059,5.51595 L14.0059,5.98266 L14.0059,15.50453 C14.0059,16.88523 12.8866,18.00453 11.5059,18.00453 L2.5,18.00453 C1.11929,18.00453 0,16.88523 0,15.50453 L0,2.5 C0,1.11929 1.11929,0 2.5,0 L8.4964,0 C8.4981,0 8.4998,0 8.5015,0 L8.6942,0 C9.3595,0 9.9975,0.26519 10.4667,0.73694 L13.2783,3.5635 C13.7443,4.03196 14.0059,4.66583 14.0059,5.32657 L14.0059,5.51595 Z M2.99902,8.49983 C2.99902,8.22373 3.22288,7.99983 3.49902,7.99983 L10.501,7.99983 C10.7771,7.99983 11.001,8.22373 11.001,8.49983 C11.001,8.77603 10.7771,8.99983 10.501,8.99983 L3.49902,8.99983 C3.22288,8.99983 2.99902,8.77603 2.99902,8.49983 Z M2.99902,11.49983 C2.99902,11.22373 3.22288,10.99983 3.49902,10.99983 L10.501,10.99983 C10.7771,10.99983 11.001,11.22373 11.001,11.49983 C11.001,11.77603 10.7771,11.99983 10.501,11.99983 L3.49902,11.99983 C3.22288,11.99983 2.99902,11.77603 2.99902,11.49983 Z M3.49902,14.00233 C3.22288,14.00233 2.99902,14.22613 2.99902,14.50233 C2.99902,14.77843 3.22288,15.00233 3.49902,15.00233 L10.501,15.00233 C10.7771,15.00233 11.001,14.77843 11.001,14.50233 C11.001,14.22613 10.7771,14.00233 10.501,14.00233 L3.49902,14.00233 Z"></path>
            </g>
        </g>
    </g>
</svg>